name D:\school\WTK\thesis\model\3dpredictsim\Results\Final\Fal_s1_bCst_PF_Natali2010_ls150_MT_nl_signed_lin_MTP_T5_ig1_300_50.mot
datacolumns 128
datarows 4
range 1.15224865 1.18681611
endheader
time	pelvis_tilt	pelvis_list	pelvis_rotation	pelvis_tx	pelvis_ty	pelvis_tz	hip_flexion_l	hip_adduction_l	hip_rotation_l	hip_flexion_r	hip_adduction_r	hip_rotation_r	knee_angle_l	knee_angle_r	ankle_angle_l	ankle_angle_r	subtalar_angle_l	subtalar_angle_r	tmt_angle_l	tmt_angle_r	mtp_angle_l	mtp_angle_r	lumbar_extension	lumbar_bending	lumbar_rotation	arm_flex_l	arm_add_l	arm_rot_l	arm_flex_r	arm_add_r	arm_rot_r	elbow_flex_l	elbow_flex_r	pro_sup_l	pro_sup_r	glut_med1_l/activation	glut_med2_l/activation	glut_med3_l/activation	glut_min1_l/activation	glut_min2_l/activation	glut_min3_l/activation	semimem_l/activation	semiten_l/activation	bifemlh_l/activation	bifemsh_l/activation	sar_l/activation	add_long_l/activation	add_brev_l/activation	add_mag1_l/activation	add_mag2_l/activation	add_mag3_l/activation	tfl_l/activation	pect_l/activation	grac_l/activation	glut_max1_l/activation	glut_max2_l/activation	glut_max3_l/activation	iliacus_l/activation	psoas_l/activation	quad_fem_l/activation	gem_l/activation	peri_l/activation	rect_fem_l/activation	vas_med_l/activation	vas_int_l/activation	vas_lat_l/activation	med_gas_l/activation	lat_gas_l/activation	soleus_l/activation	tib_post_l/activation	flex_dig_l/activation	flex_hal_l/activation	tib_ant_l/activation	per_brev_l/activation	per_long_l/activation	per_tert_l/activation	ext_dig_l/activation	ext_hal_l/activation	ercspn_l/activation	intobl_l/activation	extobl_l/activation	glut_med1_r/activation	glut_med2_r/activation	glut_med3_r/activation	glut_min1_r/activation	glut_min2_r/activation	glut_min3_r/activation	semimem_r/activation	semiten_r/activation	bifemlh_r/activation	bifemsh_r/activation	sar_r/activation	add_long_r/activation	add_brev_r/activation	add_mag1_r/activation	add_mag2_r/activation	add_mag3_r/activation	tfl_r/activation	pect_r/activation	grac_r/activation	glut_max1_r/activation	glut_max2_r/activation	glut_max3_r/activation	iliacus_r/activation	psoas_r/activation	quad_fem_r/activation	gem_r/activation	peri_r/activation	rect_fem_r/activation	vas_med_r/activation	vas_int_r/activation	vas_lat_r/activation	med_gas_r/activation	lat_gas_r/activation	soleus_r/activation	tib_post_r/activation	flex_dig_r/activation	flex_hal_r/activation	tib_ant_r/activation	per_brev_r/activation	per_long_r/activation	per_tert_r/activation	ext_dig_r/activation	ext_hal_r/activation	ercspn_r/activation	intobl_r/activation	extobl_r/activation	
          1.15224865	         -2.93017649	         -2.18217632	          5.75949770	          1.44031081	          0.92157571	         -0.00236663	        -15.97331711	         -0.95983032	          6.78230579	         28.53640367	          3.75929336	         -1.95704119	        -11.26760830	        -10.80315120	         -4.78139281	          5.40588421	          9.26143083	         -4.30068223	          3.05179213	         -0.65154487	         17.05470325	          1.83704659	         -1.94554916	          0.62180709	         -1.96246271	          4.42269693	        -13.46596632	         16.71438733	         -5.32785189	        -13.45165422	          6.88657933	         36.65176796	         15.93404767	         86.51662706	         86.51662706	          0.26074809	          0.08557601	          0.05983557	          0.26145290	          0.17047005	          0.09793545	          0.05000074	          0.05000010	          0.05000008	          0.05000098	          0.10085153	          0.11285711	          0.17445844	          0.05000140	          0.05000140	          0.05000032	          0.27489084	          0.09840095	          0.05000230	          0.05000048	          0.05000031	          0.05000030	          0.35854638	          0.53369699	          0.05000009	          0.05000035	          0.05960175	          0.25586419	          0.05000041	          0.05000045	          0.08786738	          0.23456760	          0.32337400	          0.28517631	          0.22552506	          0.21448818	          0.28611518	          0.05000000	          0.05960215	          0.12690038	          0.05000005	          0.05000001	          0.05000004	          0.05000002	          0.05370666	          0.08012698	          0.05960206	          0.05960207	          0.05000004	          0.05960213	          0.05960210	          0.05960174	          0.14690516	          0.08767106	          0.18752337	          0.05000004	          0.05000008	          0.17852334	          0.39550771	          0.12628436	          0.27008892	          0.12583608	          0.05000010	          0.05162562	          0.12836203	          0.05000024	          0.05000043	          0.07011767	          0.05960227	          0.05960231	          0.49273746	          0.28428998	          0.12108215	          0.05000041	          0.14707796	          0.14379343	          0.13046178	          0.06546003	          0.05992713	          0.06418056	          0.07104816	          0.05000024	          0.05000020	          0.51803596	          0.25880873	          0.16524641	          0.28376158	          0.48558328	          0.26579782	          0.05000011	          0.10533170	          0.08723624	
          1.16377114	         -2.92650286	         -2.26161414	          5.97236832	          1.45804287	          0.92081175	         -0.00215995	        -15.70723032	         -1.24902661	          6.57668043	         27.76622048	          4.18749784	         -1.72963110	        -13.36256542	        -11.10035901	         -5.58690570	          4.82497298	         10.32157980	         -4.71503328	          1.92920627	         -0.77791634	         19.01103369	          1.78685673	         -1.73344431	          0.82590224	         -2.03666882	          4.05127141	        -13.48629183	         17.01139323	         -6.28359182	        -13.45122441	          6.57010317	         37.79562030	         15.66489719	         86.51662706	         86.51662706	          0.21874084	          0.07178948	          0.05849160	          0.21933214	          0.14300685	          0.08215779	          0.05000164	          0.05000033	          0.05000034	          0.05000006	          0.08460412	          0.20204248	          0.19637097	          0.14367567	          0.05960317	          0.05960488	          0.23060515	          0.08254860	          0.05000113	          0.05957866	          0.05960163	          0.05960216	          0.30078351	          0.49101971	          0.05960208	          0.05960127	          0.05000013	          0.21464372	          0.13478169	          0.12972358	          0.12034480	          0.19677806	          0.27127749	          0.23923356	          0.18919231	          0.17993355	          0.24002121	          0.08470236	          0.05000010	          0.14770801	          0.05000011	          0.08422630	          0.05000096	          0.07609683	          0.06956446	          0.07104792	          0.05000000	          0.05000001	          0.11958776	          0.05000006	          0.05000004	          0.05000002	          0.12323835	          0.07354712	          0.15731282	          0.05618550	          0.05000441	          0.14976273	          0.33955292	          0.36835581	          0.25836017	          0.13475830	          0.05000010	          0.08469383	          0.17099275	          0.06615198	          0.11810913	          0.14580897	          0.05000020	          0.05000031	          0.58765588	          0.23849004	          0.10157550	          0.05960181	          0.15208256	          0.16238208	          0.12316833	          0.06410045	          0.06291955	          0.06350474	          0.05960211	          0.05000225	          0.05960206	          0.52493136	          0.30637570	          0.21019879	          0.23804711	          0.46780269	          0.22297705	          0.05000000	          0.08836245	          0.07318223	
          1.17529362	         -2.91728514	         -2.34601943	          6.14900576	          1.47603271	          0.91990059	         -0.00198135	        -15.38661902	         -1.53025797	          6.36498054	         26.84343012	          4.47954461	         -1.47477249	        -15.54621208	        -11.42295593	         -6.44747845	          4.36886742	         11.30837738	         -5.13551984	          0.68956910	         -0.96876285	         20.81236712	          1.82683741	         -1.50435782	          1.04015942	         -2.09892522	          3.60078662	        -13.50606313	         17.21291042	         -7.24236094	        -13.46509368	          6.33953169	         38.94068836	         15.40250426	         86.51662706	         86.51662706	          0.32782558	          0.06022400	          0.05000003	          0.26380943	          0.11996808	          0.06892197	          0.05000064	          0.05000006	          0.05000006	          0.05000008	          0.07097430	          0.16949293	          0.16473621	          0.12052918	          0.05000137	          0.05000247	          0.19345410	          0.08469219	          0.05000035	          0.05000047	          0.05000032	          0.05000028	          0.25232641	          0.43083680	          0.05000007	          0.05000025	          0.05000019	          0.18006398	          0.11306800	          0.10882477	          0.10095693	          0.16507653	          0.22757388	          0.20069232	          0.15871287	          0.15094575	          0.20135311	          0.19526463	          0.14440696	          0.12391186	          0.39884162	          0.19282428	          0.11222712	          0.07409752	          0.05835742	          0.05960189	          0.29832920	          0.30292867	          0.32271891	          0.46271983	          0.32532912	          0.24307995	          0.11295757	          0.07208408	          0.13323255	          0.05000021	          0.05000046	          0.12563552	          0.28484995	          0.30901263	          0.21673768	          0.13380398	          0.05000020	          0.07104955	          0.14344537	          0.18215984	          0.15093870	          0.12231878	          0.05000011	          0.05000008	          0.49298278	          0.20006863	          0.21986751	          0.05000004	          0.12758178	          0.13622201	          0.10332568	          0.05377370	          0.05278307	          0.05488861	          0.05000009	          0.05000013	          0.05000022	          0.59588254	          0.37191458	          0.18285117	          0.43844034	          0.54131851	          0.25618663	          0.07016040	          0.09759349	          0.06139236	
          1.18681611	         -2.90456005	         -2.42139458	          6.28916934	          1.49401826	          0.91885024	         -0.00177357	        -14.97534290	         -1.78905750	          6.17303912	         25.87464639	          4.73601390	         -1.21832696	        -17.87792785	        -11.68083886	         -7.26205711	          3.90491759	         12.22640439	         -5.57283706	         -0.59844770	         -0.87953441	         22.14601887	          1.86978219	         -1.28487064	          1.24718853	         -2.15045879	          3.12042945	        -13.53761414	         17.35432193	         -8.15301950	        -13.48369335	          6.19592630	         40.06503071	         15.12191077	         86.51662706	         86.51662706	          0.27501461	          0.05052178	          0.05000008	          0.22130908	          0.10064091	          0.05781850	          0.05000054	          0.05000006	          0.05000008	          0.05000002	          0.05954023	          0.14904625	          0.20535227	          0.10111198	          0.05872031	          0.12044735	          0.16228815	          0.07104828	          0.05000018	          0.05000234	          0.05000200	          0.05000227	          0.21167589	          0.38405300	          0.05000017	          0.05000044	          0.05000007	          0.15105514	          0.09485242	          0.09129279	          0.08469248	          0.13848221	          0.19091106	          0.16836019	          0.13314377	          0.12662800	          0.16891456	          0.17295315	          0.12471649	          0.10666870	          0.33458709	          0.22934291	          0.09414706	          0.09430331	          0.05000001	          0.05000001	          0.40006118	          0.41369232	          0.43823989	          0.38817447	          0.27291804	          0.35420195	          0.09476009	          0.09698904	          0.11176860	          0.05616828	          0.05000022	          0.10539528	          0.23895980	          0.25922988	          0.20270508	          0.16521789	          0.05000014	          0.05960356	          0.12033602	          0.25437907	          0.19240400	          0.15525716	          0.05000006	          0.05000005	          0.41356180	          0.16783702	          0.25847369	          0.05000003	          0.17512932	          0.18787957	          0.13659036	          0.05000000	          0.05000002	          0.05000000	          0.05000000	          0.05000005	          0.05000004	          0.66964379	          0.31199808	          0.15339333	          0.63290714	          0.57781823	          0.38422809	          0.08835501	          0.08187090	          0.05150187	
